<svg xmlns="http://www.w3.org/2000/svg" xmlns:xlink="http://www.w3.org/1999/xlink" width="500" zoomAndPan="magnify" viewBox="0 0 375 374.999991" height="500" preserveAspectRatio="xMidYMid meet" version="1.0"><defs><clipPath id="90395cb3d8"><path d="M 16.746094 16.746094 L 357.996094 16.746094 L 357.996094 357.996094 L 16.746094 357.996094 Z M 16.746094 16.746094 " clip-rule="nonzero"/></clipPath></defs><g clip-path="url(#90395cb3d8)"><path fill="#4a5f77" d="M 358.253906 187.597656 C 358.253906 140.382812 339.046875 97.769531 308.238281 66.761719 C 277.425781 35.949219 234.613281 16.746094 187.597656 16.746094 C 140.382812 16.746094 97.769531 35.949219 66.761719 66.761719 C 35.949219 97.769531 16.746094 140.382812 16.746094 187.597656 C 16.746094 234.613281 35.949219 277.425781 66.761719 308.238281 C 97.769531 339.046875 140.382812 358.253906 187.597656 358.253906 C 234.613281 358.253906 277.425781 339.046875 308.238281 308.238281 C 339.046875 277.425781 358.253906 234.613281 358.253906 187.597656 Z M 358.253906 187.597656 " fill-opacity="1" fill-rule="evenodd"/></g><path fill="#8896a6" d="M 95.769531 95.769531 C 72.363281 119.378906 57.757812 151.789062 57.757812 187.597656 C 57.757812 190.199219 55.757812 192.199219 53.15625 192.199219 C 50.554688 192.199219 48.554688 190.199219 48.554688 187.597656 C 48.554688 149.1875 64.160156 114.375 89.167969 89.167969 C 114.375 64.160156 149.1875 48.554688 187.597656 48.554688 C 190.199219 48.554688 192.199219 50.554688 192.199219 53.15625 C 192.199219 55.757812 190.199219 57.757812 187.597656 57.757812 C 151.789062 57.757812 119.378906 72.363281 95.769531 95.769531 Z M 95.769531 95.769531 " fill-opacity="1" fill-rule="evenodd"/><path fill="#8896a6" d="M 317.238281 187.597656 C 317.238281 184.996094 319.238281 182.796875 321.839844 182.796875 C 324.441406 182.796875 326.640625 184.996094 326.640625 187.597656 C 326.640625 226.011719 311.039062 260.621094 285.828125 285.828125 C 260.621094 311.039062 226.011719 326.640625 187.597656 326.640625 C 184.996094 326.640625 182.796875 324.441406 182.796875 321.839844 C 182.796875 319.238281 184.996094 317.238281 187.597656 317.238281 C 223.410156 317.238281 255.820312 302.636719 279.226562 279.226562 C 302.636719 255.820312 317.238281 223.410156 317.238281 187.597656 Z M 317.238281 187.597656 " fill-opacity="1" fill-rule="evenodd"/><path fill="#f5f55a" d="M 117.976562 187.597656 C 117.976562 148.988281 148.988281 117.976562 187.597656 117.976562 C 226.011719 117.976562 257.21875 148.988281 257.21875 187.597656 C 257.21875 226.011719 226.011719 257.21875 187.597656 257.21875 C 148.988281 257.21875 117.976562 226.011719 117.976562 187.597656 Z M 117.976562 187.597656 " fill-opacity="1" fill-rule="evenodd"/><path fill="#ffffff" d="M 187.597656 158.789062 C 179.597656 158.789062 172.394531 161.992188 167.191406 167.191406 C 161.992188 172.394531 158.789062 179.597656 158.789062 187.597656 C 158.789062 195.402344 161.992188 202.601562 167.191406 208.003906 C 172.394531 213.207031 179.597656 216.40625 187.597656 216.40625 C 195.402344 216.40625 202.601562 213.207031 208.003906 208.003906 C 213.207031 202.601562 216.40625 195.402344 216.40625 187.597656 C 216.40625 179.597656 213.207031 172.394531 208.003906 167.191406 C 202.601562 161.992188 195.402344 158.789062 187.597656 158.789062 Z M 187.597656 158.789062 " fill-opacity="1" fill-rule="evenodd"/></svg>